<svg width="683" height="683" viewBox="0 0 683 683" fill="none" xmlns="http://www.w3.org/2000/svg">
<mask id="mask0_3073_2" style="mask-type:luminance" maskUnits="userSpaceOnUse" x="0" y="0" width="683" height="683">
<path d="M0 0H682.667V682.667H0V0Z" fill="white"/>
</mask>
<g mask="url(#mask0_3073_2)">
<path d="M638.499 469.023V632.667C638.499 654.757 620.589 672.667 598.499 672.667H84.168C62.0773 672.667 44.168 654.757 44.168 632.667V577.023" stroke="black" stroke-width="20" stroke-miterlimit="10" stroke-linecap="round" stroke-linejoin="round"/>
<path d="M489.681 632.667H84.2356C62.1076 632.667 44.1689 614.728 44.1689 592.6V95.7653C44.1689 73.6373 62.1076 55.6986 84.2356 55.6986H598.432C620.561 55.6986 638.5 73.6373 638.5 95.7653V483.848C638.5 494.475 634.278 504.667 626.764 512.18L518.013 620.931C510.498 628.445 500.308 632.667 489.681 632.667Z" stroke="black" stroke-width="20" stroke-miterlimit="10" stroke-linecap="round" stroke-linejoin="round"/>
<path d="M473.262 632.667C491.392 632.667 506.091 617.969 506.091 599.837V533.087C506.091 514.956 520.788 500.257 538.919 500.257H605.671C623.802 500.257 638.499 485.56 638.499 467.429" stroke="black" stroke-width="20" stroke-miterlimit="10" stroke-linecap="round" stroke-linejoin="round"/>
<path d="M162.4 198.605H44.168" stroke="black" stroke-width="20" stroke-miterlimit="10" stroke-linecap="round" stroke-linejoin="round"/>
<path d="M638.499 198.605H202.4" stroke="black" stroke-width="20" stroke-miterlimit="10" stroke-linecap="round" stroke-linejoin="round"/>
<path d="M157.4 115.51C146.128 115.51 136.99 106.373 136.99 95.101V30.409C136.99 19.137 146.128 9.99971 157.4 9.99971H161.99C173.262 9.99971 182.4 19.137 182.4 30.409V55.6984" stroke="black" stroke-width="20" stroke-miterlimit="10" stroke-linecap="round" stroke-linejoin="round"/>
<path d="M520.676 115.51C509.404 115.51 500.267 106.373 500.267 95.101V30.409C500.267 19.137 509.404 9.99971 520.676 9.99971H525.267C536.539 9.99971 545.676 19.137 545.676 30.409V55.6984" stroke="black" stroke-width="20" stroke-miterlimit="10" stroke-linecap="round" stroke-linejoin="round"/>
<path d="M161.312 325.271H113.693C108.433 325.271 104.169 321.007 104.169 315.747V268.128C104.169 262.868 108.433 258.604 113.693 258.604H161.312C166.572 258.604 170.836 262.868 170.836 268.128V315.747C170.836 321.007 166.572 325.271 161.312 325.271Z" stroke="black" stroke-width="20" stroke-miterlimit="10" stroke-linecap="round" stroke-linejoin="round"/>
<path d="M297.198 325.271H249.58C244.32 325.271 240.056 321.007 240.056 315.747V268.128C240.056 262.868 244.32 258.604 249.58 258.604H297.198C302.458 258.604 306.722 262.868 306.722 268.128V315.747C306.722 321.007 302.458 325.271 297.198 325.271Z" stroke="black" stroke-width="20" stroke-miterlimit="10" stroke-linecap="round" stroke-linejoin="round"/>
<path d="M433.087 325.271H385.468C380.208 325.271 375.944 321.007 375.944 315.747V268.128C375.944 262.868 380.208 258.604 385.468 258.604H433.087C438.347 258.604 442.611 262.868 442.611 268.128V315.747C442.611 321.007 438.347 325.271 433.087 325.271Z" stroke="black" stroke-width="20" stroke-miterlimit="10" stroke-linecap="round" stroke-linejoin="round"/>
<path d="M568.975 325.271H521.356C516.096 325.271 511.832 321.007 511.832 315.747V268.128C511.832 262.868 516.096 258.604 521.356 258.604H568.975C574.235 258.604 578.499 262.868 578.499 268.128V315.747C578.499 321.007 574.235 325.271 568.975 325.271Z" stroke="black" stroke-width="20" stroke-miterlimit="10" stroke-linecap="round" stroke-linejoin="round"/>
<path d="M161.312 448.969H113.693C108.433 448.969 104.169 444.705 104.169 439.445V391.827C104.169 386.567 108.433 382.303 113.693 382.303H161.312C166.572 382.303 170.836 386.567 170.836 391.827V439.445C170.836 444.705 166.572 448.969 161.312 448.969Z" stroke="black" stroke-width="20" stroke-miterlimit="10" stroke-linecap="round" stroke-linejoin="round"/>
<path d="M297.198 448.969H249.58C244.32 448.969 240.056 444.705 240.056 439.445V391.827C240.056 386.567 244.32 382.303 249.58 382.303H297.198C302.458 382.303 306.722 386.567 306.722 391.827V439.445C306.722 444.705 302.458 448.969 297.198 448.969Z" stroke="black" stroke-width="20" stroke-miterlimit="10" stroke-linecap="round" stroke-linejoin="round"/>
<path d="M433.087 448.969H385.468C380.208 448.969 375.944 444.705 375.944 439.445V391.827C375.944 386.567 380.208 382.303 385.468 382.303H433.087C438.347 382.303 442.611 386.567 442.611 391.827V439.445C442.611 444.705 438.347 448.969 433.087 448.969Z" stroke="black" stroke-width="20" stroke-miterlimit="10" stroke-linecap="round" stroke-linejoin="round"/>
<path d="M568.975 451.938H521.356C516.096 451.938 511.832 447.674 511.832 442.414V394.795C511.832 389.535 516.096 385.271 521.356 385.271H568.975C574.235 385.271 578.499 389.535 578.499 394.795V442.414C578.499 447.674 574.235 451.938 568.975 451.938Z" stroke="#50C878" stroke-width="20" stroke-miterlimit="10" stroke-linecap="round" stroke-linejoin="round"/>
<path d="M161.312 572.667H113.693C108.433 572.667 104.169 568.403 104.169 563.143V515.524C104.169 510.264 108.433 506 113.693 506H161.312C166.572 506 170.836 510.264 170.836 515.524V563.143C170.836 568.403 166.572 572.667 161.312 572.667Z" stroke="black" stroke-width="20" stroke-miterlimit="10" stroke-linecap="round" stroke-linejoin="round"/>
<path d="M297.198 572.667H249.58C244.32 572.667 240.056 568.403 240.056 563.143V515.524C240.056 510.264 244.32 506 249.58 506H297.198C302.458 506 306.722 510.264 306.722 515.524V563.143C306.722 568.403 302.458 572.667 297.198 572.667Z" stroke="black" stroke-width="20" stroke-miterlimit="10" stroke-linecap="round" stroke-linejoin="round"/>
<path d="M375.944 531.256V517.524C375.944 512.263 380.208 508 385.468 508H433.087C438.347 508 442.611 512.263 442.611 517.524V565.143C442.611 570.403 438.347 574.667 433.087 574.667H385.468C380.208 574.667 375.944 570.403 375.944 565.143" stroke="black" stroke-width="20" stroke-miterlimit="10" stroke-linecap="round" stroke-linejoin="round"/>
</g>
</svg>
